<?xml version="1.0" encoding="UTF-8"?>
<svg xmlns="http://www.w3.org/2000/svg" width="777" height="397.58" viewBox="0 0 777 397.58">
<!-- 손 모델 3D 벡터 캡처. path 의 d 값이 곧 WPF Path.Data 문자열(OpenTypingPlus 활용용). -->
  <path d="M 239.08 110.07 L 239.47 107.71 L 241.04 105.74 L 243.01 101.02 L 243.8 100.63 L 244.98 97.48 L 245.76 97.09 L 248.12 92.37 L 248.12 91.19 L 249.69 88.83 L 250.48 85.29 L 252.45 80.97 L 255.2 69.17 L 259.52 60.52 L 260.7 55.8 L 262.28 53.84 L 262.67 52.26 L 263.46 51.87 L 263.46 51.08 L 264.24 50.69 L 264.24 49.91 L 265.03 49.51 L 265.03 48.73 L 265.82 48.33 L 268.18 43.22 L 269.75 41.25 L 269.75 40.07 L 270.53 39.29 L 272.89 32.6 L 274.07 27.49 L 277.22 21.2 L 278.4 20.81 L 279.58 18.05 L 282.72 14.91 L 284.3 14.12 L 289.02 13.34 L 291.77 13.73 L 294.91 15.3 L 297.67 18.05 L 298.85 20.41 L 299.24 30.64 L 298.45 34.57 L 297.67 35.36 L 297.67 36.54 L 296.88 37.32 L 296.88 38.5 L 294.91 42.04 L 292.55 48.73 L 290.98 56.2 L 290.2 65.24 L 287.84 70.35 L 286.26 78.22 L 279.97 90.8 L 279.58 93.16 L 277.22 98.27 L 277.22 99.84 L 275.25 105.35 L 272.89 119.11 L 270.53 123.44 L 270.14 126.19 L 268.96 127.76 L 266.6 137.59 L 262.28 146.64 L 262.28 147.82 L 261.1 149.39 L 261.1 150.57 L 259.52 152.93 L 259.52 154.11 L 257.56 157.25 L 255.2 164.33 L 254.41 165.12 L 254.02 167.48 L 253.23 168.26 L 249.69 178.88 L 249.69 179.67 L 251.27 179.67 L 251.27 180.45 L 240.65 212.3 L 240.65 215.06 L 245.76 222.53 L 246.94 244.94 L 248.12 252.81 L 248.12 257.13 L 248.91 259.49 L 250.09 256.74 L 251.66 255.17 L 253.23 252.02 L 254.41 251.23 L 255.99 248.09 L 257.16 247.3 L 257.95 245.33 L 261.88 241.8 L 261.88 240.62 L 262.67 240.22 L 263.85 237.08 L 264.64 236.68 L 265.42 234.32 L 266.21 233.93 L 268.96 228.43 L 270.14 223.71 L 270.93 214.27 L 272.89 211.52 L 272.89 208.77 L 275.65 203.26 L 275.25 194.22 L 278.79 187.14 L 281.15 184.78 L 284.3 183.21 L 292.16 183.21 L 294.52 184.39 L 298.45 188.32 L 301.21 193.43 L 301.6 200.9 L 303.56 203.26 L 305.92 207.98 L 305.92 210.34 L 305.14 210.34 L 305.53 209.55 L 305.92 222.92 L 301.99 232.36 L 300.81 239.04 L 301.21 251.23 L 296.49 262.24 L 294.91 263.42 L 291.38 270.11 L 289.8 271.29 L 289.02 272.86 L 289.02 274.83 L 278.01 317.69 L 277.61 322.8 L 273.68 331.06 L 269.75 335.38 L 269.75 336.17 L 267.78 337.74 L 266.6 340.1 L 265.03 341.28 L 263.85 343.64 L 260.7 346.79 L 260.7 347.57 L 257.95 350.32 L 256.77 352.68 L 255.2 353.86 L 255.2 354.65 L 253.63 355.83 L 252.45 358.19 L 250.87 359.37 L 250.87 360.15 L 249.3 361.33 L 249.3 362.12 L 246.55 364.87 L 245.37 367.23 L 242.22 370.38 L 237.9 393.58 L 128.58 393.58 L 120.72 340.1 L 116.39 305.5 L 116.39 301.96 L 115.21 295.67 L 115.21 292.13 L 114.43 288.98 L 114.43 285.44 L 113.64 282.3 L 113.64 278.76 L 112.85 275.61 L 112.46 268.53 L 111.67 265.39 L 108.53 233.54 L 107.35 230 L 106.96 222.53 L 107.35 219.78 L 111.67 211.12 L 112.46 197.76 L 114.43 194.61 L 114.82 191.86 L 114.82 180.85 L 114.03 173.38 L 114.03 163.94 L 114.82 160.79 L 114.82 155.29 L 116.79 148.6 L 121.11 141.13 L 121.9 137.99 L 122.29 131.3 L 123.47 127.37 L 124.65 125.8 L 124.65 124.62 L 126.22 121.47 L 129.76 117.54 L 133.69 115.97 L 135.66 112.43 L 138.81 109.28 L 142.74 107.32 L 145.1 106.92 L 148.24 107.32 L 150.6 108.49 L 152.96 110.85 L 154.14 113.61 L 154.14 119.5 L 152.57 123.44 L 149.82 126.19 L 149.03 130.91 L 150.6 127.76 L 154.14 124.22 L 161.61 120.68 L 166.33 120.29 L 170.26 116.36 L 176.95 113.61 L 184.81 113.61 L 185.6 114.39 L 189.53 115.57 L 191.89 118.33 L 195.82 119.11 L 195.82 117.93 L 197.79 114 L 202.11 109.67 L 206.83 107.32 L 216.27 106.92 L 221.78 108.49 L 223.35 107.71 L 229.25 106.92 L 235.14 108.1 Z M 239.08 110.07 L 236.32 118.33 L 232.39 125.8 L 232.39 127.37 L 231.21 129.73 L 229.25 137.59 L 226.49 137.59 L 225.71 139.17 L 223.74 145.85 L 222.95 146.64 L 222.95 147.82 L 222.17 148.6 L 222.17 149.78 L 221.38 150.57 L 221.38 151.75 L 220.6 152.54 L 220.6 153.72 L 218.63 158.04 L 218.63 159.61 L 216.66 164.73 L 216.66 168.26 L 217.06 167.48 L 217.84 168.26 L 219.02 167.87 L 221.38 160.79 L 222.17 160.01 L 223.35 155.29 L 224.13 154.5 L 226.49 147.42 L 228.85 137.59 M 195.43 119.11 L 195.43 121.08 L 191.89 128.16 L 191.1 133.27 L 188.74 141.53 L 188.74 143.49 L 187.96 145.06 L 187.96 147.03 L 186.78 149.39 L 185.21 156.07 L 181.27 160.4 L 176.95 173.38 L 176.16 174.16 L 176.16 165.12 L 179.31 148.6 L 179.31 144.28 L 180.49 143.1 L 180.49 142.31 L 183.24 141.53 L 187.17 139.56 L 187.57 138.77 L 189.53 139.56 M 149.03 130.91 L 148.64 131.69 L 149.03 131.3 M 148.64 131.69 L 147.46 136.81 L 147.85 136.02 M 147.46 136.81 L 147.85 138.77 L 146.28 144.28 L 145.88 150.57 L 145.49 168.66 L 143.13 173.38 L 143.92 166.69 L 143.13 158.83 L 144.31 156.47 L 144.31 146.24 L 145.49 141.53 L 147.46 137.2" fill="none" stroke="#212529" stroke-width="2" stroke-linecap="round" stroke-linejoin="round"/>
</svg>
