<?xml version="1.0" encoding="UTF-8"?>
<svg xmlns="http://www.w3.org/2000/svg" width="777" height="397.58" viewBox="0 0 777 397.58">
<!-- 3Dmodel 벡터 캡처. path 의 d 값이 곧 WPF Path.Data 문자열(OpenTypingPlus 활용용). -->
  <path d="M 532.02 106.92 L 532.02 102.99 L 534.78 98.66 L 537.53 97.09 L 542.64 96.7 L 544.21 97.48 L 546.18 97.48 L 549.72 100.63 L 552.08 100.63 L 556.4 101.81 L 559.55 104.56 L 560.34 104.56 L 561.12 106.14 L 562.7 107.32 L 562.7 108.1 L 564.27 109.28 L 565.84 112.43 L 566.23 114.79 L 567.02 115.57 L 567.81 119.11 L 568.99 119.9 L 569.77 121.86 L 574.49 126.19 L 575.67 129.34 L 577.64 131.69 L 579.21 139.56 L 580.78 143.49 L 582.36 159.61 L 583.14 161.58 L 584.32 169.84 L 587.08 172.98 L 589.43 182.42 L 589.43 184.39 L 596.91 195.79 L 599.66 293.31 L 600.05 365.27 L 599.66 378.24 L 598.87 379.42 L 595.33 393.58 L 492.31 393.58 L 483.27 366.05 L 473.83 356.62 L 473.04 356.62 L 464.39 347.57 L 463.6 347.57 L 454.95 338.53 L 454.17 338.53 L 444.34 328.7 L 443.94 327.12 L 441.98 324.77 L 440.4 321.23 L 439.62 317.29 L 435.69 308.64 L 435.69 307.46 L 434.51 305.89 L 434.51 304.71 L 431.36 298.03 L 429.79 292.91 L 429 292.13 L 429 290.95 L 425.86 284.26 L 425.86 283.08 L 422.32 275.61 L 422.32 274.43 L 420.74 272.47 L 419.96 272.47 L 419.96 271.68 L 417.99 270.11 L 416.42 267.36 L 412.88 264.21 L 412.88 263.42 L 410.13 260.28 L 409.34 257.52 L 408.55 257.13 L 406.59 253.59 L 405.02 239.44 L 403.05 235.5 L 403.05 234.32 L 402.26 233.93 L 399.51 228.03 L 398.33 226.85 L 397.15 218.99 L 397.15 213.09 L 396.36 214.27 L 396.36 210.73 L 397.15 209.55 L 397.15 207.98 L 399.51 203.65 L 398.72 196.18 L 400.69 191.86 L 400.69 190.68 L 403.44 187.53 L 403.44 186.75 L 405.02 185.96 L 405.8 184.78 L 409.73 183.21 L 414.45 183.21 L 418.78 185.17 L 422.32 188.71 L 425.46 194.22 L 425.86 202.47 L 427.43 204.05 L 428.61 206.8 L 429.39 207.19 L 430.18 210.73 L 432.15 212.7 L 434.11 221.35 L 436.47 227.25 L 437.26 227.64 L 437.65 229.21 L 439.23 230.39 L 439.23 231.18 L 440.4 231.97 L 440.4 232.75 L 441.98 233.93 L 441.98 234.72 L 443.16 235.5 L 443.16 236.29 L 444.34 237.08 L 444.73 238.65 L 447.48 241.01 L 448.27 241.01 L 453.77 246.51 L 453.77 247.3 L 457.71 250.84 L 457.71 251.63 L 460.46 253.99 L 460.46 254.77 L 460.46 239.04 L 458.49 217.42 L 462.43 209.55 L 462.43 207.19 L 455.35 193.04 L 455.35 191.86 L 446.7 175.34 L 448.27 174.95 L 448.27 173.77 L 443.55 164.33 L 442.76 163.94 L 438.05 154.5 L 436.47 152.93 L 436.08 151.36 L 434.51 149.78 L 434.11 148.21 L 431.75 145.46 L 427.82 137.99 L 425.86 135.63 L 425.07 132.87 L 423.5 130.52 L 423.5 129.34 L 422.32 127.76 L 422.32 126.58 L 420.74 124.62 L 419.96 121.86 L 419.17 121.47 L 419.17 120.68 L 418.38 120.29 L 416.42 116.75 L 412.09 103.38 L 409.34 98.27 L 409.34 97.09 L 407.77 95.13 L 405.02 89.23 L 401.87 85.29 L 401.08 83.33 L 400.3 82.94 L 397.94 78.22 L 397.15 77.82 L 394.79 70.75 L 393.22 68.78 L 392.43 66.42 L 391.65 66.03 L 389.29 56.2 L 387.32 51.87 L 387.32 50.69 L 386.53 49.91 L 386.53 48.73 L 382.99 42.04 L 381.42 40.47 L 380.64 38.11 L 379.85 37.72 L 377.1 31.03 L 377.49 29.06 L 376.31 26.71 L 376.31 21.2 L 378.67 16.48 L 381.42 14.12 L 384.57 12.94 L 389.68 12.94 L 394.4 15.3 L 396.36 17.66 L 396.36 18.45 L 397.54 18.84 L 400.69 22.38 L 408.16 37.72 L 410.13 39.68 L 411.7 42.83 L 419.17 50.69 L 421.92 56.98 L 423.1 57.77 L 424.68 60.92 L 425.86 61.7 L 433.72 80.18 L 434.51 80.58 L 435.69 83.72 L 437.26 85.29 L 438.83 88.83 L 441.58 91.59 L 441.58 92.37 L 445.91 97.48 L 445.91 98.27 L 448.27 100.63 L 448.66 102.6 L 450.24 104.96 L 450.24 106.14 L 451.81 107.71 L 451.81 108.89 L 452.59 108.89 L 453.77 107.32 L 458.1 106.14 L 458.89 105.35 L 463.6 104.96 L 466.75 101.42 L 469.11 101.02 L 470.29 99.84 L 475.01 98.27 L 480.91 98.27 L 485.63 99.84 L 490.74 103.78 L 491.52 105.74 L 493.49 107.71 L 493.88 110.07 L 494.67 110.46 L 495.85 113.21 L 496.64 113.61 L 496.64 114.39 L 498.99 117.54 L 498.99 118.72 L 501.75 124.22 L 505.29 134.45 L 513.54 134.05 L 517.87 147.42 L 518.66 148.21 L 520.23 155.68 L 521.01 156.86 L 521.01 159.22 L 519.84 156.86 L 519.05 156.47 L 517.87 153.32 L 517.08 152.93 L 515.9 149.78 L 515.12 149.39 L 514.33 147.03 L 510 142.7 L 509.22 142.7 L 508.82 140.74 L 505.68 134.45 M 532.02 106.92 L 530.85 106.14 L 522.98 106.14 L 517.08 107.71 L 512.36 105.74 L 507.65 106.14 L 501.35 108.1 L 500.96 108.89 L 497.81 110.46 L 497.03 112.03 L 495.85 112.82 M 532.02 106.92 L 535.17 107.71 L 537.14 109.67 L 537.92 109.67 L 541.86 114.39 L 541.86 117.15 L 545.79 125.8 L 546.57 130.91 L 547.36 130.91 L 548.15 133.66 L 548.93 139.17 L 550.51 141.53 L 551.69 150.96 L 550.51 149.78 L 549.72 145.06 L 548.93 143.88 L 546.57 129.73 M 452.2 108.89 L 453.38 111.64 L 455.74 114.39 L 456.13 115.97 L 457.71 117.54 L 459.28 120.68 L 459.28 121.86 L 462.03 126.58 L 462.03 127.76 L 464 130.91 L 464 132.09 L 465.57 134.45 L 465.57 135.63 L 467.14 134.84 L 467.93 135.23 L 470.29 140.35 L 471.08 140.74 L 471.47 142.31 L 473.44 144.67 L 474.22 147.03 L 475.01 147.42 L 479.33 156.07 L 479.33 158.04 L 478.55 158.83 L 477.76 158.83 L 476.19 155.29 L 474.22 152.93 L 471.86 147.42 L 471.08 147.03 L 467.14 139.17 L 465.96 135.63" fill="none" stroke="#212529" stroke-width="2" stroke-linecap="round" stroke-linejoin="round"/>
</svg>
