<?xml version="1.0" encoding="UTF-8"?>
<svg xmlns="http://www.w3.org/2000/svg" width="777" height="397.58" viewBox="0 0 777 397.58">
<!-- 손 모델 3D 벡터 캡처. path 의 d 값이 곧 WPF Path.Data 문자열(OpenTypingPlus 활용용). -->
  <path d="M 502.14 114 L 503.32 110.85 L 504.5 110.07 L 504.89 108.89 L 510.4 106.14 L 517.08 105.74 L 521.41 106.92 L 524.95 105.35 L 533.2 105.35 L 542.25 109.67 L 548.54 116.36 L 549.33 116.36 L 552.47 119.11 L 562.7 123.44 L 563.48 124.62 L 565.45 125.4 L 567.81 127.76 L 568.59 127.76 L 569.38 129.73 L 571.74 132.48 L 572.92 137.99 L 575.28 143.1 L 579.21 162.37 L 580 163.55 L 580 165.12 L 580.78 166.3 L 582.75 174.16 L 583.93 175.74 L 585.5 176.52 L 587.08 181.24 L 584.72 170.23 L 584.32 161.97 L 583.54 160.79 L 583.14 137.2 L 582.36 131.69 L 579.6 121.86 L 579.6 115.57 L 578.42 113.21 L 577.24 100.63 L 576.07 97.88 L 576.07 96.31 L 575.28 95.52 L 575.28 94.34 L 574.49 93.55 L 574.1 91.19 L 572.53 88.05 L 572.13 79 L 573.31 76.25 L 576.07 73.5 L 580 71.93 L 583.93 72.32 L 588.26 74.68 L 588.26 75.46 L 589.43 76.25 L 589.83 77.82 L 590.61 78.22 L 592.58 81.76 L 596.12 93.95 L 598.09 97.88 L 601.23 101.81 L 601.62 103.38 L 602.41 103.78 L 605.16 111.25 L 605.16 114 L 606.34 116.75 L 606.74 129.34 L 607.52 134.84 L 608.7 139.95 L 610.67 144.67 L 610.67 146.24 L 612.24 149.78 L 613.03 159.22 L 614.6 164.73 L 615.78 185.17 L 617.75 198.54 L 618.14 199.72 L 619.71 198.94 L 622.86 217.81 L 623.64 218.2 L 624.04 219.78 L 626 221.35 L 626.79 223.71 L 627.58 224.1 L 629.54 230 L 629.54 235.5 L 628.36 240.22 L 627.58 240.62 L 627.58 243.37 L 628.76 267.75 L 630.33 332.63 L 630.33 393.58 L 513.15 393.58 L 495.46 376.28 L 494.67 376.28 L 487.98 369.2 L 487.2 369.2 L 480.51 362.12 L 479.73 362.12 L 478.55 360.94 L 478.55 360.15 L 476.97 358.98 L 476.58 357.4 L 475.4 356.62 L 473.44 352.68 L 472.65 348.36 L 471.86 347.57 L 466.75 332.63 L 465.96 331.84 L 465.57 329.48 L 464 326.73 L 463.6 324.37 L 462.82 323.59 L 461.25 318.08 L 460.46 317.29 L 460.07 314.93 L 459.28 314.15 L 457.71 308.64 L 456.92 307.86 L 456.53 305.5 L 455.74 304.71 L 454.17 299.21 L 452.99 298.03 L 452.99 297.24 L 451.02 295.67 L 451.02 294.88 L 447.88 292.52 L 447.09 290.56 L 445.12 288.59 L 443.94 285.44 L 443.16 285.05 L 441.98 282.69 L 438.44 270.11 L 437.26 268.93 L 436.87 267.36 L 435.69 266.57 L 435.69 265.78 L 433.72 264.21 L 433.72 263.42 L 431.36 261.06 L 431.36 260.28 L 430.18 259.49 L 429.79 257.92 L 429 257.52 L 427.82 255.17 L 427.43 252.81 L 425.86 250.45 L 425.86 248.87 L 424.28 246.51 L 424.68 236.68 L 421.53 230 L 421.53 221.35 L 422.71 217.81 L 424.28 216.24 L 424.28 215.45 L 428.22 212.3 L 431.75 211.12 L 437.26 211.52 L 442.76 214.66 L 442.76 215.45 L 443.55 215.45 L 446.3 218.2 L 448.66 222.92 L 449.45 226.46 L 455.35 231.18 L 456.92 234.72 L 459.67 237.08 L 465.18 248.87 L 465.96 249.27 L 466.36 250.84 L 467.93 252.02 L 467.93 252.81 L 477.76 261.85 L 479.73 265.78 L 480.51 265.78 L 484.05 268.93 L 484.84 268.93 L 485.63 270.11 L 486.41 270.11 L 486.41 270.89 L 492.7 276.79 L 492.7 277.58 L 495.85 280.33 L 495.85 281.12 L 498.21 283.48 L 498.6 274.83 L 496.64 244.94 L 500.57 235.11 L 498.99 232.36 L 498.21 231.97 L 497.81 230.39 L 497.03 230 L 496.64 228.43 L 495.06 226.85 L 494.67 225.28 L 493.88 224.89 L 493.49 223.31 L 491.92 221.74 L 490.34 218.2 L 488.77 216.63 L 487.2 213.09 L 485.63 211.52 L 485.23 209.95 L 484.45 209.55 L 483.66 207.98 L 484.05 204.44 L 483.27 204.05 L 481.69 200.51 L 479.73 198.54 L 479.73 197.76 L 476.58 193.82 L 475.79 191.86 L 474.61 191.07 L 474.61 190.28 L 473.04 189.1 L 471.86 186.75 L 470.29 185.57 L 470.29 184.78 L 468.72 183.6 L 468.72 182.81 L 466.36 180.45 L 466.36 179.67 L 461.64 174.16 L 458.49 167.87 L 456.13 166.69 L 451.41 161.58 L 450.63 161.58 L 448.66 159.61 L 446.3 158.83 L 444.34 157.25 L 436.87 154.89 L 434.11 152.54 L 430.18 151.36 L 428.22 149.39 L 421.92 149.39 L 416.03 147.03 L 412.49 143.88 L 410.91 141.13 L 410.52 134.84 L 411.31 132.48 L 413.27 130.52 L 413.67 129.34 L 419.56 126.19 L 426.64 125.8 L 429 126.58 L 434.51 124.22 L 440.4 123.83 L 443.55 124.22 L 447.48 126.19 L 451.41 126.98 L 458.1 132.09 L 461.25 133.27 L 461.64 134.05 L 474.61 137.2 L 475.79 138.38 L 478.94 139.17 L 481.3 141.53 L 486.8 142.31 L 491.92 144.67 L 492.31 145.46 L 494.28 146.24 L 497.03 152.93 L 497.81 153.32 L 498.6 155.68 L 499.39 156.07 L 502.53 162.37 L 505.29 165.9 L 505.68 167.48 L 507.25 169.05 L 508.04 171.41 L 508.82 171.8 L 513.54 181.24 L 513.54 186.75 L 511.58 186.35 L 509.22 183.6 L 508.43 181.63 L 505.29 177.7 L 504.5 175.74 L 503.71 175.34 L 503.71 174.56 L 502.93 174.16 L 502.14 171.8 L 501.35 171.41 L 500.57 169.05 L 499.78 168.66 L 498.99 166.3 L 498.21 165.9 L 497.42 163.55 L 496.64 163.15 L 496.24 161.58 L 494.28 159.22 L 492.7 155.68 L 488.77 151.36 L 488.77 150.57 L 487.2 149.39 L 486.41 147.03 L 482.09 141.53 M 502.14 114 L 494.67 114.39 L 491.52 113.61 L 489.95 112.43 L 488.77 112.43 L 484.84 110.46 L 473.44 110.07 L 466.75 112.43 L 462.03 117.15 L 460.46 117.15 L 454.56 119.11 L 449.45 123.83 L 448.27 126.19 M 502.14 114 L 508.43 114.39 L 514.33 115.97 L 517.08 117.54 L 520.62 120.68 L 520.62 121.47 L 523.37 125.01 L 524.16 128.16 L 527.31 132.09 L 527.31 133.27 L 533.2 145.06 L 533.2 146.24 L 536.74 153.32 L 536.74 154.5 L 537.92 155.68 L 541.86 164.33 L 542.64 164.73 L 543.82 167.08 L 546.18 167.87 L 547.75 171.02 L 548.54 171.41 L 549.33 173.77 L 550.11 174.16 L 550.11 174.95 L 550.9 174.95 L 551.29 176.52 L 550.9 176.13 M 528.88 136.02 L 530.45 136.41 L 530.85 137.2 L 532.42 137.59 L 533.6 139.17 L 534.38 139.17 L 537.92 143.1 L 537.92 143.88 L 539.5 145.06 L 539.5 145.85 L 542.25 148.21 L 543.43 155.29 L 544.21 156.07 L 545.79 161.97 L 546.57 162.76 L 548.15 168.26 L 548.93 169.05 L 549.33 171.41 L 550.11 172.2 L 550.9 175.74 M 551.29 176.52 L 551.29 176.91" fill="none" stroke="#212529" stroke-width="2" stroke-linecap="round" stroke-linejoin="round"/>
</svg>
